<svg width="225" height="121" viewBox="0 0 225 121" fill="none" xmlns="http://www.w3.org/2000/svg">
<rect width="25.2" height="7.56" transform="matrix(-1 0 0 1 57.96 35)" fill="white"/>
<rect width="25.2" height="7.56" transform="matrix(-1 0 0 1 65.52 40.04)" fill="white"/>
<rect width="25.2" height="7.56" transform="matrix(-1 0 0 1 70.56 45.08)" fill="white"/>
<rect width="25.2" height="7.56" transform="matrix(-1 0 0 1 73.08 50.12)" fill="white"/>
<rect width="25.2" height="7.56" transform="matrix(-1 0 0 1 75.6 55.16)" fill="white"/>
<rect width="25.2" height="7.56" transform="matrix(-1 0 0 1 75.6 60.2)" fill="white"/>
<rect x="57.96" y="98" width="25.2" height="7.56" transform="rotate(180 57.96 98)" fill="white"/>
<rect x="65.52" y="92.96" width="25.2" height="7.56" transform="rotate(180 65.52 92.96)" fill="white"/>
<rect x="70.56" y="87.92" width="25.2" height="7.56" transform="rotate(180 70.56 87.92)" fill="white"/>
<rect x="73.08" y="82.88" width="25.2" height="7.56" transform="rotate(180 73.08 82.88)" fill="white"/>
<rect x="75.6" y="77.84" width="25.2" height="7.56" transform="rotate(180 75.6 77.84)" fill="white"/>
<rect x="75.6" y="72.8" width="25.2" height="7.56" transform="rotate(180 75.6 72.8)" fill="white"/>
<rect x="17.64" y="35" width="25.2" height="7.56" fill="white"/>
<rect x="10.08" y="40.04" width="25.2" height="7.56" fill="white"/>
<rect x="5.04001" y="45.08" width="25.2" height="7.56" fill="white"/>
<rect x="2.51999" y="50.12" width="25.2" height="7.56" fill="white"/>
<rect y="55.16" width="25.2" height="7.56" fill="white"/>
<rect y="60.2" width="25.2" height="7.56" fill="white"/>
<rect width="25.2" height="7.56" transform="matrix(1 0 0 -1 17.64 98)" fill="white"/>
<rect width="25.2" height="7.56" transform="matrix(1 0 0 -1 10.08 92.96)" fill="white"/>
<rect width="25.2" height="7.56" transform="matrix(1 0 0 -1 5.04001 87.92)" fill="white"/>
<rect width="25.2" height="7.56" transform="matrix(1 0 0 -1 2.51999 82.88)" fill="white"/>
<rect width="25.2" height="7.56" transform="matrix(1 0 0 -1 0 77.84)" fill="white"/>
<rect width="25.2" height="7.56" transform="matrix(1 0 0 -1 0 72.8)" fill="white"/>
<path d="M107.25 97.9943C101.331 97.9943 96.2652 96.8224 92.0511 94.4787C87.8371 92.1113 84.6056 88.8205 82.3565 84.6065C80.1075 80.3688 78.983 75.4564 78.983 69.8693C78.983 64.2822 80.1075 59.3816 82.3565 55.1676C84.6056 50.9299 87.8371 47.6392 92.0511 45.2955C96.2652 42.928 101.331 41.7443 107.25 41.7443C113.169 41.7443 118.235 42.928 122.449 45.2955C126.663 47.6392 129.894 50.9299 132.143 55.1676C134.393 59.3816 135.517 64.2822 135.517 69.8693C135.517 75.4564 134.393 80.3688 132.143 84.6065C129.894 88.8205 126.663 92.1113 122.449 94.4787C118.235 96.8224 113.169 97.9943 107.25 97.9943ZM107.392 83.5057C109.049 83.5057 110.482 82.9493 111.689 81.8366C112.896 80.724 113.831 79.1378 114.494 77.0781C115.157 75.0185 115.489 72.5682 115.489 69.7273C115.489 66.8627 115.157 64.4124 114.494 62.3764C113.831 60.3168 112.896 58.7306 111.689 57.6179C110.482 56.5052 109.049 55.9489 107.392 55.9489C105.64 55.9489 104.137 56.5052 102.882 57.6179C101.627 58.7306 100.669 60.3168 100.006 62.3764C99.3428 64.4124 99.0114 66.8627 99.0114 69.7273C99.0114 72.5682 99.3428 75.0185 100.006 77.0781C100.669 79.1378 101.627 80.724 102.882 81.8366C104.137 82.9493 105.64 83.5057 107.392 83.5057ZM143.472 97V42.4545H162.506V52.8239H163.074C164.068 48.9886 165.643 46.1832 167.797 44.4077C169.975 42.6321 172.52 41.7443 175.432 41.7443C176.284 41.7443 177.125 41.8153 177.953 41.9574C178.805 42.0758 179.622 42.2533 180.403 42.4901V59.2159C179.433 58.8845 178.237 58.6359 176.817 58.4702C175.396 58.3045 174.177 58.2216 173.159 58.2216C171.241 58.2216 169.513 58.6596 167.974 59.5355C166.459 60.3878 165.264 61.5952 164.388 63.1577C163.512 64.6965 163.074 66.5076 163.074 68.5909V97H143.472ZM221.605 42.4545V56.6591H185.668V42.4545H221.605ZM192.628 29.3864H212.23V79.4574C212.23 80.215 212.361 80.8542 212.621 81.375C212.882 81.8722 213.284 82.2509 213.828 82.5114C214.373 82.7481 215.071 82.8665 215.924 82.8665C216.516 82.8665 217.202 82.7955 217.983 82.6534C218.788 82.5114 219.38 82.393 219.759 82.2983L222.6 96.0767C221.724 96.3371 220.469 96.6567 218.836 97.0355C217.226 97.4143 215.308 97.6629 213.083 97.7812C208.585 98.018 204.809 97.5563 201.755 96.3963C198.701 95.2126 196.404 93.3542 194.865 90.821C193.327 88.2879 192.581 85.1155 192.628 81.304V29.3864Z" fill="white"/>
</svg>
