<svg width="75" height="69" viewBox="0 0 75 69" fill="none" xmlns="http://www.w3.org/2000/svg">
<path d="M35.5 22L36.5562 30.9501L43.6317 25.3683L38.0499 32.4438L47 33.5L38.0499 34.5562L43.6317 41.6317L36.5562 36.0499L35.5 45L34.4438 36.0499L27.3683 41.6317L32.9501 34.5562L24 33.5L32.9501 32.4438L27.3683 25.3683L34.4438 30.9501L35.5 22Z" fill="white"/>
<path fill-rule="evenodd" clip-rule="evenodd" d="M3.32124 47.8635L3.32767 47.8824L18.8443 41.7606L18.7157 41.3825L2.68457 45.9918L2.691 46.0107C2.52752 46.0525 2.36047 46.102 2.19166 46.1595C0.830464 46.6225 -0.129045 47.4211 0.0485411 47.9431C0.226128 48.4652 1.47356 48.5131 2.83476 48.0501C3.00357 47.9927 3.16619 47.9301 3.32124 47.8635Z" fill="url(#paint0_linear_2_379)"/>
<path fill-rule="evenodd" clip-rule="evenodd" d="M66.1468 50.2163L66.1577 50.1996L51.7952 41.7165L51.5759 42.0503L65.061 51.8684L65.0719 51.8517C65.2053 51.9551 65.3471 52.0565 65.4961 52.1544C66.6976 52.944 67.9172 53.2106 68.22 52.7497C68.5229 52.2889 67.7944 51.2752 66.5928 50.4855C66.4438 50.3876 66.2945 50.2977 66.1468 50.2163Z" fill="url(#paint1_linear_2_379)"/>
<path fill-rule="evenodd" clip-rule="evenodd" d="M26.0423 3.34072L26.023 3.34612L31.2988 19.1705L31.6833 19.0624L27.9456 2.80596L27.9264 2.81136C27.8935 2.64586 27.853 2.47638 27.8048 2.30472C27.4159 0.920523 26.6702 -0.0806731 26.1393 0.0684881C25.6084 0.217649 25.4933 1.46068 25.8822 2.84488C25.9305 3.01654 25.9842 3.1823 26.0423 3.34072Z" fill="url(#paint2_linear_2_379)"/>
<path fill-rule="evenodd" clip-rule="evenodd" d="M52.4029 63.7273L52.4285 63.7152L41.3283 42.8579L40.8168 43.0994L49.8707 64.923L49.8962 64.911C49.9812 65.1344 50.0777 65.3615 50.1855 65.5899C51.0551 67.4315 52.3327 68.654 53.039 68.3205C53.7453 67.9869 53.6129 66.2237 52.7433 64.3821C52.6355 64.1537 52.5214 63.9349 52.4029 63.7273Z" fill="url(#paint3_linear_2_379)"/>
<path fill-rule="evenodd" clip-rule="evenodd" d="M58.769 5.70352L58.7559 5.68843L46.698 17.2146L46.9599 17.5162L60.0651 7.19641L60.052 7.18134C60.1876 7.08093 60.3236 6.97197 60.4583 6.85507C61.544 5.91248 62.131 4.81079 61.7695 4.39437C61.408 3.97796 60.2348 4.4045 59.1491 5.34709C59.0144 5.46399 58.8874 5.58334 58.769 5.70352Z" fill="url(#paint4_linear_2_379)"/>
<path fill-rule="evenodd" clip-rule="evenodd" d="M57.7231 17.6495L57.7177 17.6416L51.3582 22.4808L51.4666 22.6385L58.2599 18.4298L58.2545 18.422C58.3245 18.3814 58.3951 18.3369 58.4655 18.2885C59.033 17.8981 59.3716 17.4052 59.2219 17.1875C59.0722 16.9698 58.4907 17.1098 57.9232 17.5002C57.8529 17.5487 57.786 17.5986 57.7231 17.6495Z" fill="url(#paint5_linear_2_379)"/>
<path fill-rule="evenodd" clip-rule="evenodd" d="M70.8753 20.6956L70.8682 20.6769L55.5942 27.3814L55.7371 27.7544L71.5823 22.5418L71.5752 22.5232C71.737 22.4752 71.9021 22.4194 72.0686 22.3556C73.4113 21.8414 74.3399 21.0071 74.1427 20.4921C73.9455 19.9771 72.6971 19.9765 71.3544 20.4907C71.1879 20.5545 71.0277 20.6232 70.8753 20.6956Z" fill="url(#paint6_linear_2_379)"/>
<path fill-rule="evenodd" clip-rule="evenodd" d="M20.4658 61.7271L20.4762 61.7348L26.4665 52.7598L26.2587 52.6063L19.4373 60.967L19.4477 60.9747C19.3762 61.0572 19.3057 61.1451 19.2371 61.2379C18.6843 61.9859 18.4688 62.7641 18.7556 62.9761C19.0425 63.1881 19.7232 62.7536 20.276 62.0057C20.3446 61.9129 20.4079 61.8197 20.4658 61.7271Z" fill="url(#paint7_linear_2_379)"/>
<path fill-rule="evenodd" clip-rule="evenodd" d="M5.79028 15.1235L5.77912 15.14L20.0464 23.7823L20.2694 23.451L6.89438 13.4835L6.88323 13.5C6.75099 13.3952 6.6104 13.2923 6.46249 13.1927C5.2698 12.3898 4.05328 12.1097 3.74531 12.5671C3.43734 13.0245 4.15454 14.0463 5.34723 14.8493C5.49514 14.9488 5.64341 15.0404 5.79028 15.1235Z" fill="url(#paint8_linear_2_379)"/>
<defs>
<linearGradient id="paint0_linear_2_379" x1="1.26947" y1="47.5138" x2="20.9065" y2="44.2236" gradientUnits="userSpaceOnUse">
<stop stop-color="#FFD04D"/>
<stop offset="0.274038" stop-color="#F27441"/>
<stop offset="1" stop-color="#737373" stop-opacity="0.3"/>
</linearGradient>
<linearGradient id="paint1_linear_2_379" x1="67.1312" y1="52.0501" x2="52.472" y2="38.5763" gradientUnits="userSpaceOnUse">
<stop stop-color="#FFD04D"/>
<stop offset="0.274038" stop-color="#F27441"/>
<stop offset="1" stop-color="#737373" stop-opacity="0.3"/>
</linearGradient>
<linearGradient id="paint2_linear_2_379" x1="26.5022" y1="1.3108" x2="28.7281" y2="21.0967" gradientUnits="userSpaceOnUse">
<stop stop-color="#FFD04D"/>
<stop offset="0.274038" stop-color="#F27441"/>
<stop offset="1" stop-color="#737373" stop-opacity="0.3"/>
</linearGradient>
<linearGradient id="paint3_linear_2_379" x1="52.2392" y1="66.6709" x2="44.4645" y2="39.5613" gradientUnits="userSpaceOnUse">
<stop stop-color="#FFD04D"/>
<stop offset="0.274038" stop-color="#F27441"/>
<stop offset="1" stop-color="#737373" stop-opacity="0.3"/>
</linearGradient>
<linearGradient id="paint4_linear_2_379" x1="60.801" y1="5.25283" x2="43.8588" y2="15.7122" gradientUnits="userSpaceOnUse">
<stop stop-color="#FFD04D"/>
<stop offset="0.274038" stop-color="#F27441"/>
<stop offset="1" stop-color="#737373" stop-opacity="0.3"/>
</linearGradient>
<linearGradient id="paint5_linear_2_379" x1="58.7147" y1="17.5441" x2="50.0872" y2="21.613" gradientUnits="userSpaceOnUse">
<stop stop-color="#FFD04D"/>
<stop offset="0.274038" stop-color="#F27441"/>
<stop offset="1" stop-color="#737373" stop-opacity="0.3"/>
</linearGradient>
<linearGradient id="paint6_linear_2_379" x1="72.9389" y1="20.9674" x2="53.4404" y2="24.9982" gradientUnits="userSpaceOnUse">
<stop stop-color="#FFD04D"/>
<stop offset="0.274038" stop-color="#F27441"/>
<stop offset="1" stop-color="#737373" stop-opacity="0.3"/>
</linearGradient>
<linearGradient id="paint7_linear_2_379" x1="19.2463" y1="62.2977" x2="28.4707" y2="53.3086" gradientUnits="userSpaceOnUse">
<stop stop-color="#FFD04D"/>
<stop offset="0.274038" stop-color="#F27441"/>
<stop offset="1" stop-color="#737373" stop-opacity="0.3"/>
</linearGradient>
<linearGradient id="paint8_linear_2_379" x1="4.82625" y1="13.2788" x2="19.3347" y2="26.9148" gradientUnits="userSpaceOnUse">
<stop stop-color="#FFD04D"/>
<stop offset="0.274038" stop-color="#F27441"/>
<stop offset="1" stop-color="#737373" stop-opacity="0.3"/>
</linearGradient>
</defs>
</svg>
